<?xml version="1.0" encoding="iso-8859-1"?>
<!-- Uploaded to: SVG Repo, www.svgrepo.com, Generator: SVG Repo Mixer Tools -->
<svg fill="#000000" height="800px" width="800px" version="1.1" id="Capa_1" xmlns="http://www.w3.org/2000/svg" xmlns:xlink="http://www.w3.org/1999/xlink" 
	 viewBox="0 0 343.595 343.595" xml:space="preserve">
<g>
	<g>
		<path d="M341.668,168.234C307.886,105.704,242.795,66.86,171.797,66.86S35.708,105.703,1.926,168.234L0,171.798l1.926,3.565
			c33.783,62.529,98.874,101.373,169.872,101.373s136.088-38.844,169.871-101.373l1.926-3.565L341.668,168.234z M171.797,261.737
			c-64.121,0-123.019-34.354-154.696-89.938c31.677-55.584,90.574-89.938,154.696-89.938s123.019,34.354,154.695,89.938
			C294.815,227.382,235.918,261.737,171.797,261.737z"/>
		<path d="M171.797,104.343c-37.195,0-67.455,30.26-67.455,67.455s30.26,67.455,67.455,67.455s67.455-30.26,67.455-67.455
			S208.992,104.343,171.797,104.343z M171.797,224.253c-28.923,0-52.455-23.531-52.455-52.455s23.531-52.455,52.455-52.455
			s52.455,23.531,52.455,52.455S200.721,224.253,171.797,224.253z"/>
		<path d="M186.587,166.708c-5.063-2.719-11.457-3.781-18.112-4.715c-2.247-0.314-3.26-1.211-3.394-1.737
			c-0.15-0.591,0.453-2.148,2.707-3.813c5.759-4.253,14.1,2.471,14.184,2.539l4.789-5.772l4.824-5.743
			c-0.427-0.358-4.334-3.564-9.904-5.644c-0.646-0.241-1.291-0.45-1.934-0.642v-4.692h-15v4.783
			c-2.068,0.724-4.037,1.752-5.866,3.102c-7.015,5.178-10.132,12.493-8.338,19.567c1.732,6.833,7.806,11.778,15.851,12.906
			c15.241,2.137,15.004,4.069,14.706,6.517c-0.135,1.107-0.6,2.694-3.061,3.695c-3.974,1.614-11.428,0.798-18.408-4.813
			l-9.396,11.693c4.477,3.598,9.475,6.154,14.513,7.568v5.597h15v-4.939c1.356-0.298,2.675-0.696,3.941-1.211
			c6.937-2.821,11.42-8.569,12.3-15.772C196.98,177.057,193.642,170.495,186.587,166.708z"/>
	</g>
	<g>
	</g>
	<g>
	</g>
	<g>
	</g>
	<g>
	</g>
	<g>
	</g>
	<g>
	</g>
	<g>
	</g>
	<g>
	</g>
	<g>
	</g>
	<g>
	</g>
	<g>
	</g>
	<g>
	</g>
	<g>
	</g>
	<g>
	</g>
	<g>
	</g>
</g>
</svg>